<?xml version="1.0" encoding="UTF-8"?>
<svg xmlns="http://www.w3.org/2000/svg" version="1.1" width="300" height="300" viewBox="0 0 300 300"><rect x="0" y="0" width="300" height="300" fill="#ffffff"/><g transform="scale(12)"><g transform="translate(0,0)"><path fill-rule="evenodd" d="M8 0L8 1L11 1L11 3L10 3L10 2L9 2L9 3L10 3L10 5L9 5L9 6L8 6L8 8L9 8L9 9L10 9L10 10L9 10L9 11L7 11L7 10L8 10L8 9L7 9L7 8L6 8L6 9L7 9L7 10L5 10L5 11L7 11L7 12L6 12L6 13L8 13L8 12L9 12L9 15L7 15L7 14L6 14L6 15L7 15L7 16L6 16L6 17L8 17L8 18L9 18L9 20L8 20L8 22L9 22L9 23L8 23L8 25L9 25L9 24L10 24L10 25L14 25L14 19L15 19L15 21L16 21L16 23L17 23L17 24L16 24L16 25L19 25L19 24L21 24L21 25L22 25L22 24L24 24L24 25L25 25L25 20L24 20L24 21L23 21L23 22L22 22L22 20L21 20L21 19L22 19L22 18L21 18L21 15L22 15L22 17L23 17L23 18L24 18L24 19L25 19L25 18L24 18L24 16L25 16L25 14L24 14L24 13L25 13L25 10L24 10L24 9L25 9L25 8L24 8L24 9L19 9L19 8L18 8L18 9L19 9L19 10L17 10L17 11L18 11L18 13L19 13L19 10L20 10L20 12L24 12L24 13L23 13L23 14L21 14L21 13L20 13L20 14L21 14L21 15L18 15L18 14L17 14L17 16L15 16L15 15L16 15L16 13L17 13L17 12L16 12L16 9L17 9L17 8L16 8L16 7L17 7L17 6L16 6L16 7L15 7L15 4L16 4L16 5L17 5L17 3L15 3L15 2L14 2L14 1L15 1L15 0L14 0L14 1L12 1L12 0ZM16 1L16 2L17 2L17 1ZM12 2L12 4L14 4L14 3L13 3L13 2ZM10 5L10 6L9 6L9 7L10 7L10 9L11 9L11 10L10 10L10 11L9 11L9 12L11 12L11 14L10 14L10 15L9 15L9 16L8 16L8 17L9 17L9 16L10 16L10 17L11 17L11 16L12 16L12 15L14 15L14 14L15 14L15 13L16 13L16 12L15 12L15 13L13 13L13 12L14 12L14 9L12 9L12 6L13 6L13 8L14 8L14 6L13 6L13 5L12 5L12 6L11 6L11 5ZM10 6L10 7L11 7L11 6ZM0 8L0 11L1 11L1 13L0 13L0 17L1 17L1 15L2 15L2 14L1 14L1 13L2 13L2 12L4 12L4 14L3 14L3 15L4 15L4 16L5 16L5 12L4 12L4 11L3 11L3 9L5 9L5 8L3 8L3 9L2 9L2 8ZM12 10L12 11L13 11L13 10ZM22 10L22 11L24 11L24 10ZM12 13L12 14L13 14L13 13ZM23 15L23 16L24 16L24 15ZM2 16L2 17L3 17L3 16ZM13 16L13 17L12 17L12 18L11 18L11 19L10 19L10 20L9 20L9 21L11 21L11 22L12 22L12 23L13 23L13 22L12 22L12 21L13 21L13 19L12 19L12 18L15 18L15 19L16 19L16 17L15 17L15 16ZM17 17L17 20L20 20L20 17ZM18 18L18 19L19 19L19 18ZM11 19L11 21L12 21L12 19ZM19 21L19 22L17 22L17 23L19 23L19 22L21 22L21 24L22 24L22 22L21 22L21 21ZM10 23L10 24L11 24L11 23ZM0 0L0 7L7 7L7 0ZM1 1L1 6L6 6L6 1ZM2 2L2 5L5 5L5 2ZM18 0L18 7L25 7L25 0ZM19 1L19 6L24 6L24 1ZM20 2L20 5L23 5L23 2ZM0 18L0 25L7 25L7 18ZM1 19L1 24L6 24L6 19ZM2 20L2 23L5 23L5 20Z" fill="#000000"/></g></g></svg>
